<mxfile host="app.diagrams.net" modified="2023-05-16T09:39:08.280Z" agent="Mozilla/5.0 (Windows NT 10.0; Win64; x64) AppleWebKit/537.36 (KHTML, like Gecko) Chrome/113.0.0.0 Safari/537.36" etag="JwH2osBtTBNNKtT7BcfF" version="21.3.2" type="github">
  <diagram name="Página-1" id="hE0ruYl4sg6l6aNKfTQo">
    <mxGraphModel dx="1050" dy="581" grid="1" gridSize="10" guides="1" tooltips="1" connect="1" arrows="1" fold="1" page="1" pageScale="1" pageWidth="827" pageHeight="1169" math="0" shadow="0">
      <root>
        <mxCell id="0" />
        <mxCell id="1" parent="0" />
        <mxCell id="6xUMhn31XoTzL20euPGf-1" value="Las media queries (consultas de medios) son una característica de CSS que permiten aplicar estilos diferentes a un documento HTML según ciertas características del dispositivo en el que se está visualizando, como el tamaño de la pantalla, la resolución, la orientación, entre otros." style="html=1;shadow=0;dashed=0;shape=mxgraph.bootstrap.rrect;rSize=5;strokeColor=#DFDFDF;html=1;whiteSpace=wrap;fillColor=#ffffff;fontColor=#000000;verticalAlign=bottom;align=left;spacing=20;spacingBottom=50;fontSize=14;" vertex="1" parent="1">
          <mxGeometry x="50" y="110" width="860" height="636.06" as="geometry" />
        </mxCell>
        <mxCell id="6xUMhn31XoTzL20euPGf-2" value="Image cap" style="html=1;shadow=0;dashed=0;shape=mxgraph.bootstrap.topButton;rSize=5;perimeter=none;whiteSpace=wrap;fillColor=#868E96;strokeColor=#DFDFDF;fontColor=#DEE2E6;resizeWidth=1;fontSize=18;" vertex="1" parent="6xUMhn31XoTzL20euPGf-1">
          <mxGeometry width="250" height="210" relative="1" as="geometry" />
        </mxCell>
        <mxCell id="6xUMhn31XoTzL20euPGf-17" value="" style="shape=image;verticalLabelPosition=bottom;labelBackgroundColor=default;verticalAlign=top;aspect=fixed;imageAspect=0;image=data:image/png,iVBORw0KGgoAAAANSUhEUgAAAzIAAAJdCAIAAABmgtVBAAAAAXNSR0IArs4c6QAAAARnQU1BAACxjwv8YQUAAAAJcEhZcwAAEnQAABJ0Ad5mH3gAAFloSURBVHhe7d1bbFXXoej9AbETgoEaYwLYJGBiCjtgYhMK2Q4NxQ0keHM5wCbeNgkWOEBc27jGmNhgUsOhJRefkqQuFZVlfWlqjk6OXO1WUO1dZColEvs7JCJCSIYqkv0QHfHQBz/0wZ/Eg79xW2vNuS5ey/fhxf+n8bDmZc017VTyv3OONREDA/+fGd99938/+vjStuI9BWs3rvvBZgaDwWAwGAzG2I61L7wsQ0vmlowumV7BDDPDZtl//uXGph9tC3sng8FgMBgMBmOchkwvGWDBJpNDZZlclV9QGLYrg8FgMBgMBmNchwwwb5mJ7777v1wnYzAYDAaDwZiUITMseDdTfPTxpbDNDAaDwWAwGIwJGzLGbJZtK94Tto3BYDAYDAaDMWFDxpjNMr53yWAwGAwGgzGJQ8aYzbKwDQwGg8FgMBiMCR5kGYPBYDAYDIYTgyxjMBgMBoPBcGKQZQwGg8FgMIY9/tvuN8JG2A6MEQyyjMFgMBgMxvDGv//x+t/+9l3YkCvDdmMMd5BlDAaDwWAwEhrbivc1N7/X9uv/R0bYy5v+xbvpw9bfyJVy0y8ufCJ3825iJD7IMgaDwWAwGPGHjK3ghTE5ms+85936v//3teCmb775G2U2skGWMRgMBoPBiD9kh5kaO1Z7Wr7ovvH/hg25Um66cOETs1vY2xmJjDHJsg/+19ffffM/P4hYP+Lx+//823f/+VHYSgaDwWAwGJM2TG+9eeAn5nVYk8khV8pNcge5m3k9jPHR/5HvsuPr/zwWttWpUfef3/ztb/+rLmL9WIxxzrIRnjpZxmAwGAyGW8ObZUOMEWTZxb/IGvs/F2MsOjfIMgaDwWAwGJM7xivL1HWysFRQXfG3v/zes8alMUWy7Pfql2jm+plE816QNNmr1vyfi8H16iql/tXrRU/YkWUMBoPBYLg1xifLYhdY3QfmVqa+eGaGJ4bCiiKw6dj/lC+9zaSPH3FXNPoxPU0SdrlOHzawPizLPLUz+gldY5ZloR9MnV/gddRTt7991V5y0eaX2jOYYmQZg8FgMBhujfHJsjh/8VU/BaPKGximKAKbPDWmmiSUR9GubMU4pi8Q9QFtmflTz9SL9zR8m0ZZL2N4tcx3rcsuRsky/83jUMB6D0KWMRgMBoPh1hiXLPNdlIkYEVGlysGUk6+H5AhFlaoob66FSkOP8GN+cPGj31/86IOwRPFkSVjkhJecd1OUjxvmIMsYDAaDwWDEH5NwtSw8lTzdE7EpFBWh9vAESXBEvNGMyKIKJGDEGfqPry7aeQdZxmAwGAwGY7zH+GSZ+usfvHUYNlQqjSDLgseMVmCRxzTD3ySBNfIgqmRiZFnkplEPsozBYDAYDEb8MT5ZZtrAkwpq6K6ShRBWEcFUkq/D3+XPO90b/xnc2TvCj/nBMfM6vOGCWRIWOd6Pjtg06jEBWeYJLP/PTJYxGAwGgzFVxnhlmemBsDwILPpSwZti6nVok74G5o0tFRJyh6gtEXFMkx+qQ4IZ572o5j+4ObL3NIKb9BFCYTOSMc5ZZn+5gR+ALGMwGAwGY2qO8csyNUxmmeEvm0BIBFoitH+UB2QEh35XKDnCRvRjmq6y633v1WUWWB/lTqB9l6eFRjjGJMsYDAaDwWAk+RjfLBvu8F/oiRhhF4ymzCDLGAwGg8FgxB/H69+VvfXv//6XX1z4ZIghd5C7yZ3D3j7GY+gsi5iUNlUGWcZgMBgMBiP+eHnTv/z7v1+XyRV3yN3C3jv2I2aW2RuRU/FSmRxkGYPBYDAYjESHjLM3D/xkiCF3CHsLI/FBljEYDAaDwWA4McgyBoPBYDAYDCcGWcZgMBgMBoPhxCDLGAwGg8FgMJwYZBmDwWAwGAyGE4MsYzAYDAaDwXBikGUMBoPBYDAYTgyyjMFgMBgMBsOJQZYxGAwGg8FgODHIMgaDwWAwGAwnhs0yAAAATC6yDAAAwAlkGQAAgBPIMgAAACeQZQAAAE4gywAAAJxAlgEAADiBLAMAAHACWQYAAOAEsgwAAMAJZBkAAIATyDIAAAAnkGUAAABOIMsAAACcQJYBAAA4gSwDAABwAlkGAADgBLIMAADACWQZAACAE8gyAAAAJ5BlAAAATiDLAAAAnECWAQAAOIEsAwAAcAJZBgAA4ASyDAAAwAlkGQAAgBPIMgAAACeQZQAAAE6YhCzLPPjzy5cvXzy+xS5bB1rk2oC2ix82v71r/VN2W0Dmjw62XGzTe/zm4s+P/2v4Dk+t/9fjP7/4G7vDh6cqfmR2KPceO9zFd9+p+x9y/5YD/6R3DtlSd1Gu/3nFGrHluHzl13axpSZ4Ar6T92opNzvEkbLv5ppffz7TLo21Zy7l/PrumuCoOWHXAwAAl0zG1TIdSUNnmfVhXfESu1k2WWQbtZ09sNpulU22RdVVmP9Rt0WW09BZdnxL5s53ZOy1vbMr0x5LWX1E5ePPj6hPiJJlWuAEJiTLXvpcRtWil+zSMJBlAABMBeOaZZkrt1a0/I/mA3YxYIgsO6v3fWrlS//t7RYdQqHwKqz5UC1/WLNzpYynpwtL39ER1lK+0my35fThO6WFT8vFp9cUv/3f1YW18A96RV0Ci/j0lQfOqjfXFNpl8dS/Nst3X6wz++mDX6x7RS8oT6/eVqHP0Kz0nPyIjG+WhRRnnIuSZQfe+fk7b/xI/dYAAMDkGa8se3rzgXd+YW43toTXir40NVSWGfbqV9s7/6KWihvU0Zr/zXM9a83b6nLWhzXr5eun9Nvbmv/Ve1vzqV3vXGz78J0Daoeg6FkWONrZA6bydIe1Ne+zHxeRZUrmvzXLd+jrYVM8y1SSXr78yc/r9q33Xi8EAAATaeyz7OnC0jobZJfbfvHOgc0RV2F0GEXc3YtSNqZ7Lv70R0L8SCXaJ+/ssluMTN0TP6+QKbZP7flhTQLNEivLAin2zs5Mm2i/eDt4h3RismxW1qmnWu7m/fruml/dzN5XPs1uPLHIewvSM3L2Favt6h7lzfn7Ps/91d289//je98v/d47X8uDLH/n/cen6wOERM+yzB/sevvUh/a/2cWWt3cSZwAATIKxzDL11/1nMl/0H/efvb1L30yMIuEsE09VmCtYdut/rwjLhWAtra/6UL3YatcPJXaWqatrn6i4e1vdv/Tc0IySZdFuYkZIcGKZpLPsbt6vfNX1zPYf6o2JZFlopfcgi16arY8QFD3LrCU/OtDw8zb9hYm2D5srInsaAACMpzHMMvO9xbYPT1VsWTHk1ZbNCWdZaGXUraFaino1K7ohskyIlYEvB4RN/9fHj6LtZ+am5xhlWUv7k/Plx85+7Pl2VVqn33/Mbtdi3cTUWZbzb3vE9FfS35U1djMjZ7bIurgk2G0hQ2aZ8dT6XW+36G+zRtx9BgAA42kyskxHjItXy5SX9DcLfv62/2EZUbJMPyAjcJczejUmTmfZX9MX2EUhNnzv9N015y6l2EVtqCy7mfGMejmzJvgudY2NLAMAYAoZwyxL+CamipjIK1tRymaC55YZ+pjhRRLvatyYZJlvyr8nsALGO8u4iQkAwKQayywzMn/wr3Gm/EcXUTZj803MyxebE/smZsAjmGVhU/4rtqpHkAAAgAk29llmDPWAjOg8ZTMmzy0rLK17T51AeIFN3Sxb/3ner+/mHjnx2BN68Yl/Spm3TL0YdZbpH1kFWQ0PyAAAYPKMV5Zp0R8na/spPGJ02YQZq6f8e41flkWT4Kz/hLLsyVPZ/q9q2uqKm2VqB98bA8O+i8fJAgDggnHNsugSybIx/jcxvaZulknfP7vo3a9X6ajK++jrxdv1CY06ywAAgAsmIcsAAAAQiSwDAABwAlkGAADgBLIMAADACWQZAACAE8gyAAAAJ5BlAAAATiDLAAAAnECWAQAAOIEsAwAAcAJZBgAA4ASyDAAAwAlkGQAAgBPIMgAAACeQZQAAAE4gywAAAJxAlgEAADhhYrKsvrt/cPBeu10aa/U35NFDejrsegAAgCnEoSxrv6eaagTtRpYBAIAkMF5ZVnCwrbuv91qdWRrfLAupU58TkWXtN/tuttcU2CUAAAAnjX2W5ZSe77prLl/1d7uRZT36bAb6ultLc+w6AAAAx4xlluVsru+0QTY4+PeernNlgQgyWdZZ9bue/od66z96uz8oths7TDVFslWn7lH23+6+OyBXDfRdO33mWq9+2fun+vDIip5lOWXnum4/UO+R+u92nSfOAACAe8Yoy9ZVtX+pY0mV0832hiJ/+OgsC/fg2kG9MZEsi66nPVcfISh6llkFNe03++w5Pviqs2qdXQ8AAOCCsckyff9xsP/etbaDUadw2Szr/6+2ChlDuWWtX6nlB38qs9u1WDcxdZb1dzfk5FR2P1BH6a7Pzan6i3wZvEkaMGSWGaF7rOP2zVAAAIARmMAse3Ctwi4K8eY1VVU36u2iNlSWyRRTL9UsMfsudY2NLAMAAMljbLIsoZuYvgzyBFbAeGcZNzEBAIDLxijLjHVVQ075n6wsC5vy31m/mSn/AADAOWOaZVpiD8iIlmV35VsGbv+2wtwHLdhRUbZFvRh1lql3qbO5d40HZAAAAGeNfZYZ8R4nGyXLiq706nwKstUVN8vUDlEF3sXjZAEAgPvGK8v8Esoy2XKn/9DTb282Dg4O9F6rUWtHnWUAAABTwMRkGQAAAOIgywAAAJxAlgEAADiBLAMAAHACWQYAAOAEsgwAAMAJZBkAAIATyDIAAAAnkGUAAABOIMsAAACcQJYBAAA4gSwDAABwAlkGAADgBLIMAADACWQZAACAE8gyAAAAJ5BlAAAATpiYLKvv7h8cvNdul8Zf/Q35eT0T93kAAACjRpYBAAA4YbyyrOBgW3df77U6szS5WdZ+s+9me02BXQIAAHDS2GdZTun5rruyiqT+bjeyrEefzUBfd2tpjl0HAADgmLHMspzN9Z02yAYH/97Tda4sEEEmyzqrftfT/1Bv/Udv9wfFdqOxrkq+d8Bsfdjf8+dW3+bcstYbvf0DZutA/71rrTvsFqP4g+5e88kPB3pvtLb6siyn7FzX7QfmzYP9d7vOE2cAAMA9Y5Rl66rav+w14TPQd7O9ocgfPjrLwj24dtBuFrn13X+3a4P6vzwfOEhx+z0bVSHfdZXZrSKnIfzwA2r38LllBTXtN/vsOT74qrNqnV0PAADggrHJsvZ7Knb6711rOxh1CpfNsv7/aquQMZRb1vqVWn7wJ1tWp79UtTTwbVf9ZlViBQfbbqpKe3DtTb35xdZr9x70fqnfK62r6PxWbg1WV5FeHHjw5/NFufLgRfV/MIEYnmVG6B7rBN5UBQAAiGsCs+zBtQq7KMSb1x7I/W/U6wW99R83z8uoCvrlbRVWHXZJytlc3/Z59+27vf3/MFe8/FPH+rqK7KKUo8+HLAMAAFPJ2GRZQjcxfRmkWiqQZXZKfqTADsVtX/UPPuzv/fJa5yeny/YVRc7oH/jytF3Soj4gg5uYAADAZWOUZYaetq+7J+qU/1hZprd+1+X/CkBITofqrpvn7KIU5YuWQ10tC5vy32lulQIAADhlTLNMS+wBGd4ss3PLHnzZVhEMph2n235RoeaK2Qgb7P1Dlbo/mltU/7seffRgdcWdW2avxqnvb/IdTAAA4KqxzzIj3uNkfVkmtrT32ItZHg8fdJmvan5wO3KjrLiuwDMy4n0Tk8fJAgCAKWC8sswvXpZJvueW6SeTha5s5agHnpk0M5vOdOoLYsGrcUM/twwAAGAKmJgsAwAAQBxkGQAAgBPIMgAAACeQZQAAAE4gywAAAJxAlgEAADiBLAMAAHACWQYAAOAEsgwAAMAJZBkAAIATyDIAAAAnkGUAAABOIMsAAACcQJYBAAA4gSwDAABwAlkGAADgBLIMAADACWSZqL/RP+jR02HXAwAATKTkybL2e6qp2u3SMJBlAADABY5mWcHBtu6+3mt1djERI86ykLpuGWjDzbL6P/f0/OF8Wa5dBAAAGBnnsiyn9HzXXXP5qr97SmSZudj2sL/nd1UFdh0AAMCwOZRlOZvrO22QDQ7+vafrXFmO3SJEblnrjd7+Abux/7vbnTWBBOrosWvDmarLaftGvn5w7aDZ2zr9pTxW+MrYWZZT9svu3sCpDchPrwydmlhX1X6jp/+h2dZ787fEGQAAGAk3skyWzZe9JroG+m62NxR5qkcqar8bKLKQgduf6P6Jk2VCHLz2QO795Wm9oOW23ZYV9U2b/1NiZllxR0/4xz/s7dxht1q5Zef/EIiz/p5rv/Q0JQAAQAKcyDJ9/3Gw/961toNRrzS1q/L69lr9YZtrOaWtN+/ebC31lU/sm5hFnd/KkLrdFpj+VXSlV3bazTN2MSRqlm3plHvLs7v5SYU6udyi+j/ogvym1Wz3K6j67c3ef6j9h3UHFgAAYEpkWYW63hX0sP/BvZuhm5gBQ8wty/nkttzWe6VIL+mjPbhWoRd8omaZvhrX+3mxXVTK1BH6u+vtohdZBgAARsiJLIt3E1Pt0PllaG6ZNtDzW5NZ1pBT/k/flKlkUuzMTXmYQKL5RcuysMdnePg/i5uYAABgdNzIMkO2V6wp/yE5RfvKTv/2ttrv207vDkNmmSj+3N64bP1mcPAfNz0TzTxiXi0buP1B7MryT/nvNvc6AQAAhsmlLNMiH5CRU9rafe92Z2gmWUHFJzfVHnd9DdZ+V2XR7d/aKirYUVG2Rb8yzDT/u7d7Hg4++HOUG5jKEHPLBnq7mooDvZVT9UHb6R12yV5OG3hwmwdkAACAUXAuywzv42RzGlQtRei/ec53BUtP5PcKn92lH4oh9XZ6c22I25SB2WP1f/ZObbMGvmo1H8/jZAEAwJhwNMvCqEtoXz0Izi0b+HtP5JR/2XKn/9ATmn820Hutxm6wKlXeDXxjcyoobpbJz9fPLQscup8LYwAAYOxNjSwbA7llnfdkV0U8QhYAAMANj0SWmQdwKPfao30DEwAAYPI9Qlk20Hft9Dq7BgAAwDWPRJYBAAC4jywDAABwAlkGAADgBLIMAADACWQZAACAE8gyAAAAJ5BlAAAATiDLAAAAnECWAQAAOIEsAwAAcAJZBgAA4ASyDAAAwAlkGQAAgBPIMgAAACckZZbl7D3W0vLu0eIMuxxQWN7YUrXLLiRqV1VLdFU77R5jRH9QY3mhXbR2+j4+YvM4U58+0Z85AvJXl8hZbqpobmk5sX+tXQQAwDHJmGUF+0+0tDQfetkuhkxelv2z/OR45UCWjVhCWTa3+G35G6zd+6xdBgDANUmYZS8f0tdECuyi9PKhxuaTtRX7S6oaW2rfLN5/qLbx3dqSFXZrHLqWhh1zYRLJsnh2VpNlfs/urW1uPPGT8r2HTrQ0Ht27u7zqeHPjka1z7WY/ubP8D/l2cfStAAA4IPmyrKjiVEvLsb05dlGZm1O4s7yq8V11vUlqPn605MdrF9mN8ZBlzmaZWLT2xyVHj8sK195trCrfWZgTvbty9skqa67YZBcBAHBQsmXZ3G1H5R/oo9si/zbPVbcwlYSvkxkJZNmiDXurTgbioLmxav/WPDutLfCZkartLdCwPYb4oFhZNjdva/lPAweRn757va84M+Tm2sbA2TUeP7p3Q6JFGsiyrfIIzSZqG2vLtyy3GzXfz9544uju9b5ffdxPz1q/9yeN9uCyq/Zv9R09ESv21uq3N79VFPtK2Fp1Y5tpZQAAtyVZlunJ/qcqIqeVzX1J5k/z0Vfz1A7D+vOssyyCZ2KZvhIW7vj+9arMxj/LVuysCkRPkNwrECg5O38SsVn+HrYlWGZ6Zltz2BHkr9EeXv9WwzQf3WI2SvE+PaOw/KRdG9R4aIi6irTc/Addb//7xnirnuxf67uECgCAc5Iry/Rk/6g33QpLak+Yv/eyY05U7cwzqxMQL8t0VzVWbCv8pyyzYtH6kqqqEv8lq0RuYup9hpllZhp7S+NbxWvVp8/NeamkVoVQcGqd7qpj+wtfsPf25uZtrfhJxda8BMtHv72lubakMEdWZkaO/DWaw5uuXb+7ovZ4VclL5uBzczZX+H/MOJ+uZwG2NB+TR1drFhUUV6hKO7H/ebM9Ac9urThpLn/OLSyvrd3/8tNmvY/5LVXtDP9mLgAAbkmqLIuc7D8G4t3EnPvqURUXAc0na4+GbmIGjFeWbT36biiSDHMb90SpCU998y7o3cYT1RXDvYnZUr3TE3Fz1Wm01O4N/YCL1v545/5DVVXH7b1IzzkO/ek6aE9VFHl/V6+qkx/ilzASTPYHAEwRSZRlGcWqUfyT/cdA/Lllc/Ne3R+MEuukv5/GK8tsNtklI+yzstbvPRSa3aU1V+1I8Jekjh/2mebqYPk/q9dzX9pf29zSfKKqfN/Oog15y7Mi9h/q0/XJRxPnFzVMug2Z7A8AmAKSJ8ty9DWRaJP9RyeBKf8hWcvzNhTtPyYzpLH8JbtOmbSrZV5zc1blvbzjqPwUGa+J/ZqGvlqmC+2nJaHEy1D/DWL8mJGfrt9+vGTYc/yH52X1zVz/rwgAADclTZbFnOw/WnGybNH63VVV5S8H78zNzSksMVm2wa5RNqgCaTm+3z6+ISNnbUFEjYwky+LMLVNf0qw+ujc0k2zR2m1q+lfLT/wX2GIyF7RizS3TWxuPmrliiwqKy/WzKoLnGPfTzdyyE4eK19q5Z0KseLn4x2vVZ40VJvsDAKaOZMkyPdl/XK6JRJ/yL5lZ/8t3Vqu2CHdsrz+79DUbrxjfxAyxdRPzTp8NuCG/iRntm5JSY8XmYCoNTX96+Dcxg2/PKzluV3k1Bx7oGv/Tn41y8i3vnigZs9mBOluj/DNcAAC4KEmyTF93GZ9/VydOlkmL1u8o9z63rLY8Ysq/unRUXHE8UCnvNjcfKTbrR5tl5qJU7OeWzc0rKjlyIji7q/lk1cieW2Yfxhv23LIVno/WDy3bekgvBqIz/qf7nlvW3Fi9P+FviSZAT/aP9s9wAQDgoqTIMjPZ3zcFCjCT/e23EwAAcF8yZNl4TfbH1MZkfwDAFJMUV8sAAACmPrIMAADACWQZAACAE8gyAAAAJ5BlAAAATiDLAAAAnECWAQAAOIEsAwAAcAJZBgAA4ASyDAAAwAlkGQAAgBPIMgAAACeQZQAAAE4gywAAAJxAlgEAADiBLHNG2p6+/KY7GfPsolNyqzrv9g88HDR6OuxqAAAwhsiysXEqq6kvf88puzQiDmfZ6S8HbJFpZBkAAOOBLBsbY5Bl7qrv7h8cfNjbVVNgVwAAgHFAlo2N5M+ye+12CQAAjI9HJcvWzthwPaeuL1/GU1Pf8gNds9Pn2y3KnMeWdCyu7Fujt648dNW3dV7Hsqa+rFWvzSq+tcq8/fWOGTPsRn3nMdo40pFqdxHT0qozXr+zskGtX113K2vD4el2i7Qr44j3jVfT7PqAIT/dmJZ+duGh+6v11lVHrs/NXms3+A+etWJO6qqr9pfQEPFBQyDLAACYCI9Elq1N23M/WCeBcStj3hyzefqKqytjbzVhZIotONYc+ChFb4yfZTNOZQVyMDieeaHQbEwwy2J9ujRN7+Ddmt90JzPbnLzv4MsO3fIcZxhZtqOz9yFZBgDAuHsEsmzas13PyZQ51JU2L3eaWpGbuqTj6cpbC541bVS/UGXTrflLNputjz9/XVXaod/Y9LHdY3eYllY9X7XOF+m+rol5E3N69m+yD1zPtAeXb38vW35ctD1TC+/EyrLYn34gs1Iu3s9+vkRfgZufsqRT7X/go8f0Zsse5P7ThdWpKYHcTEj7PT3J/2H/zV8W2VUAAGB8PAJZ9mTxfdkxc/w3/kKWqGhbumGzXVTmzNRvsemjm8a7w2MvfBHxlcmh55bNmT6vek5h18LXb33fXDkbZpbF/HS9dXnRYdN8hv55/cfRuy0r3GUXhyGQZQ+6G3LsKgAAMD4egSxT9xk9M73CrbgqOylrhV0ydCH50se3g3pLwlk2o/6pI32rj1zP3HB25oLCx1JK1I3FYWZZzE/XJx9t+E8v8iDDsaOrV5bZXW5iAgAwvrhaltjVspFm2RwVhcc6PR9eMq9y7LJMb33m+eAc/xhGl2VM+QcAYEIkU5bZS0dhwRR9btkzx+4sWvWa3p7Q3LK4WbZQvqWyKy3NfIVz/vT0Qj3ZS0+6r/vie/qrndNSSmbvvKPm3Y9Vlpm5ZQ23Mpe8Fvx25/QF1TPSzU8aQJYBADAFPAJZNibfxIyXZbmzX/cfIXDbdMbW8I9WWVb2XqCiwr6JGRp2Kli8T5/+7NUVEe9dXWa+qhnj4EPc0o1KZ9m3nUwuAwBgXD0SWSbNDz2ya2TPLYuTZUKkHJiz55Z5OJkcK8o+CqSPeuSY96FlT6y6rkLKttFos0wyzy0zTzXTH1Ed+BrmGGVZ2bUHg4OD/d3niigzAADGTzJlGcZLxZ9UlwXxb2ICADAeyDIkorj1Ru/AQ7IMAIBxRJYBAAA4gSwDAABwAlkGAADgBLIMAADACWQZAACAE8gyAAAAJ5BlAAAATiDLAAAAnECWAQAAOIEsAwAAcAJZBgAA4ASyDAAAwAlkGQAAgBPIMgAAACeQZQAAAE4gy6aKTHHpjLiyzy4NobIyod2MXfvElUqRZ5fG3rS06ozX76xq6stv6ltdd2vhql3T7JaAlF2zt36xvMHukPXCAf8OhWlFQ2wFACCZkGVTxSiyLG+juHJGVGbaRa9xzbJp8zqW6SDzjmWFJaG0SjmceWiIHTbPef1+2NblRYcpMwBAkiLLko4zWbY5/YAMqfvZGw6npMjFOdPTq3WE3ZqbZnaY82Sxqq6VZR0z0+arHea9l10nd7g+W+0vpq+6vqapb82hTv/WO5kL9LsBAEg2ZFnScSbLTmU19X2/6LBdMlLeW6yueB1Qr9M+WtLUl3+k43G9xZiW3bnsyNU01W2Fuuq+mDPDbFHk1uVNfc8VV9tlAACSClm2UiVL9Ubx6RnxWaV4NV2clFlzRlzaJoIXZVJnicpS0dGk1n/WIM69GNokVR4WVxpEsb7Ao8wSF8+Ijn2+fWI5Jz9os31tcipVv94drCV9esFxaaPe7Ldpo7hszq1OVC72ZJm57xltnFupdwhk2abF4kKd3tQkmlfbc/Cov9E/qPS02xUJOZsts2yr/56jzrL8Ax89Jhtr1fX8pr6sFXPspnDq7Wv2nPLfstyVcaQvv9KUnH6952zqqqvLApPPFq56Lbj/9BVXV6pborvssr04dytjnv8T23v0z9Z/o96uAABgkpBl/u7xDnt5aYY41xC+qXWd3mSYDtstMvRS+UFVaa/o13GpnUv1G1PE+/LIdaJQr6+rE59u16/iZdlafSXMOzrk2Q4ryyK2Ni21WwNGlmU6m7w3MeedesrMJDvSIcsvtfBOftMX6WmFTxZeD07qD30nQM9L80SVlbZH7nlV3wXVx6+7L9tLHTMwlrwQ6NxQh6mFaUu65J6erQFkGQDAFWSZ7p7zq1UY/UwGTYPYPUPMzFUXz0y7zF4szh8UtUvFTL37zFnifLB7AhYU2JoxL+oW2/Vxrd0caLil4tPD4uMz4mi67Tx1Sn7q0lpYlqWICzKkGsRbC9UlrtQU8UapTqth3cSUJVcq8vXVvufWqR/cFmHIyLJMldAKfzPl113NKuvLr+x8QognilSWZe0Jn9S/Ymu1KrMEs0zuU1Sts29+ypJO9Q2Dui7zX0o7PL+yb82Bj1LMi9ffm27Xe5BlAABXkGU6y8wf/7Dbf8FLSlJ6pnhjo2guFe3mypm/eyR127FBtOubkhE3AVVRqXeZ4Z3LlavWyGCSfda+RZSVqhpL1aek+swvSpbpt79fYJcM9VnDyrIG8apdUpoionM0pqWfXXjo/mrdW8tf73gyTX8PIHS1rC+/4dZTK0p0Lc1Pyf4o+5jc8466vpVglulDBelj3pmnL48Z5tugK47dz6+7PsszTQ0AAPeQZXGzbIaabfZZpah9UbyyUGSlRJlTr6SLNtlDTWJ7cJKZR8ws0xfGZFeZIDNxVrglcAnNL0qW6ZOvXWiXjMjTG9aU/+g/3ZhR3wPI33N2mhCPvfCFzLLFz+faLdq07M7vN/Vlr5qT8NyyU3p9wIqr8phZK+ySNj9tp76oFlF4AAA4hiyLl2UqXAJTvozqmijhoib+14jLCU/2D5JH+3S7+NkZUT7L3so8eVAdP+olt3G5WjZeWaYmk83K9lbXnMc3qStkS17Qv84F6muVYVkmdJbpror7TcyErpbpif/3l1dGm+wPAIBbyLJ4WaZWNohyfUsxNUXs2632DwsXM+9eds+C1WpuVuS0sCEUmwOa8jMT/8+Itoip/VKULEtsbtlz+vQuvijMfVG527JA6ySWZSObW3Ygs7Ivv+763OzN6opXyuaZhV+o6fl1XU+a7WLz3EPqJmbmktf8NzG/SNc3KeM9tyyBuWUzTmXV9a3cc2q6KJmnG877MA6LuWUAAFeQZfGybNM2HTph483QJbEFK0WHjJ7AdzNV6MS4NBXVknX6gIHLY+ocvN+F1KcXdZhzHuqbmEEL1WU87z7BaXPjmWVi+rPqERWynDzjVqbn+lm8fwZg6Kf86yyL+CZm9qq1drsoyZDZF6hA81k60fzIMgCAK8iyeFkm7d7ue2jZD1arqf2mZlL1FzPDblzW1aitP4g2ySwK/VnBqntlu/qg3XYpfpZJMZ9b5vF0rmiVZ6XfKH+Kk4E0GtcsE2LOY0s6Flf2rTFFdaBrdvp8uyXA+52AVZXXM5YU+ieTDfFvYpq5Zeq5ZTnqKlrYc8vmP6FumPpuXE5//os1TfezV/k/giwDALiCLMNUFW3K/8jUd/cP9v+lyi4BADBJyDJMVWOVZQVnbsoq666ziwAATBayDFPV2GRZXXf/w/6e31Xl2GUAACYNWQYAAOAEsgwAAMAJZBkAAIATyDIAAAAnkGUAAABOIMsAAACcQJYBAAA4gSwDAABwAlkGAADgBLIMAADACWQZAACAE8gyAAAAJ5BlAAAATiDLAAAAnECWOWPXPnHljKjMtIsTZtqC97IO3V/d1Jff1Lf8QGda2hy7AQAATCiyzBmTkmXTsjuX6yALjbrrc9Ls1gnRfm9wcLCn3S4BAPDoIsseaQcyK2WK3c9+vmS6XErZPLPo1pqmvjWvn1WLE4QsAwDAIMseZUu6nmvqW150eJpdltbOeV2G2hfpE3fBjCwDAMAgy1aqW4fVG8WnZ8RnleLVdHGyUq25tE0ssHuI1FmislR0NKn1nzWIcy+GNpm321Ep8maoPeWh5OLHL9pdFiwWF2rsPm37xA9WqxfBm5WV+uOCY5ddHZApLp0R51aL3dvtYdtLxaYZdmNIe49sm8HB/hv1dkUiHt90J7/pTsY8u2hMW3F1TVNf9qoEZ5gV1HT2/H1Af7j8+Ae3f1eVY7dI6qx8p1TX3S8TrEO/7jCnHKm/u07voBRU/a6nP3j4vu7WUs/hrRH97AAAuIcs83aVf9hymiHONYRval2nN0net9eJNs+elzaq7alLRUdwB88YVpZ5d1DjoFhmNweMKE3S9vTlN10Nvy42r2NZU9+ywvATiSanQWWW38DtD+zWUWdZTv2NyMP3tO8wW4PIMgBAkiDLdFedXy1EiviZjKoGsXuGmJmrLk2dW6m2z14szh8UtUvFTL37zFnivNxtn17wMBP2P6sU+xbaPY3yg2r9hQKRrhfnLxatOt0ip/bnbVTrY2VZnT6B1FnihM648ll2uzU5WVb1u5u93/V0NRTpS1g5ReduyozynMOQWRYQ8ybmwWsP5JaBXnv8dRVt/6Ur7Zs2/xUzsgwAkCTIMp1lpkHUhSvTW+bWoc4yIz1TvLFRNJeKdnM9LGqWNYhdKXYx6JzeOdUuKUvWqSMMK8uC90OlWG8fgVFnmVZQ8Yv2a1/29HzXP/AwLI9GlWVlf1JVdvsTb4NVqFJ7eLvVLgIAkFTIsrhZNkPNNvusUtS+KF5ZKLJSPLt5qCyrFHl2KWRMsswbiOaExyTLRj23LKfhWu/A4MCDnu7P28/XlBWvC+uwUWWZvoPpnWem8P0AAEASI8viZZnqrTpRqFcb1TXDyLIxuYk5Tlk22m9i1qvI6usqsotC5Hb2RmTZ4Deha1s5n9xWVcXVMgAAoiHL4mWZWtkgynVVpaaIfbvV/olnWdwp/0GjyrIRzq8a3XPL9If23zbfjiw42Nb9nfrOpOccWm8/lBXV21VToGaeNXT26Llh4Vl2V64buP3bCrmTVLCjomyLfsXcMgDAI4Ysi5dlm7bZkPKNNwPPyNBvjxzekBrWAzKCw3yRc5yzbHRP+S/r+k5/qt/AV62BbMpp/SbwcAtjQC2GZVnRlV6zMYBvYgIAHlFkWbwsk3Zv9z20THZVuywnc20sXpbt2iYubffNLSvconZwJMuk0fybmDtau/sC5aQfWtb6pV68F7gnmVvVedfuMNDX3fpBlLllQhSc/kPo4WSDA73XauwGnlsGAHikkGXj7K3DqqKCc8tyl4o2WV0N4hW9iLGhZrn1/6XKLgEAMDWRZeMsdbG63BW8BmaG7+oXRqvgzE1ZZWHf2QQAYMohy8bfgsXi3GHxmQ6yjkpRudR3TxOjVNfd/7C/x/ePPgEAMCWRZQAAAE4gywAAAJxAlgEAADiBLAMAAHACWQYAAOAEsgwAAMAJZBkAAIATyDIAAAAnkGUAAABOIMsAAACcQJYBAAA4gSwDAABwAlkGAADgBLIMAADACWTZOKisFFf22ddRrBRXzojKTLsUtGtf9PWTbMbhuXturWzoy2/qW9Nw55mtZ1PtBmvagveyDt1f3aR2WH6gMy1tjt0AAACGhywbB8mTZTNOZdWp3vKONYd+Eyyzadmdy/1b8+uuz0mzWwEAwHCQZeNgZFnmoCeK7sjSWlZUnZoyR4g50+e9l60rLWuFuSR2ILNSLt7Pfr5kulxK2Tyz6NYa2W2vn1WLAABgeMiycZAsWfZaxqG+/GOdM+yiMu3ZrudkqBXuUgtL1OvlRYen6U3a2jmvy1D7Ip0LZgAADBtZFqio3NWirUkF02cNonm18M6gSp0lKktFR2DruRfFArvF2rRRXDZb60Tl4vAsS00XzYfFZ2fUDm3b1Qd5s0ztrDeZoXvHI1NcOiPOrRa7t4tP9Q7tpWKTN5SE2mTPrU7U5orqKFFYf6N/UOlptysSk7YzPMvEvI5lKsteky8f33Qnv+lOxjyzwZq24uqapr7sVfpy2oqraofswxmv37GTz17vmBE6XInKvrqraSl2WaR9tKSpb+WeU/6LbSM8eQAAphqyzIRRg+jwtJEcF9fZrWKGONfg2yRHa3CrEGs3hm/tkPsHwyji7WrrMLPMu4MaB8Uyu1mUH4zYKscYZVmk6c9/IUsrU2dp2h5ZWlfDr4vZbtM/h8qy+yvDZqfVdT2pd1RMh+00HbY5/YB/q0WWAQAeEWRZIIzatohl+rLNsqWiTZZNg3hVb529WJw/KGqXipl6ceYscd5bXSnigt75rYXqAltqinij1BdGG7aoxcvb/QePdhMzT+ddrCyr0yeQOkuc0GdbPktvXaovoR0Wr+hF+enbt6ut45Rl03RyrSyuNnctE8sy/SWAebnyLdNSSua8fl+uWbphs95VkZ23pun+giVz9Is787Mjv8hJlgEAHhFkmcmySpFnlxRTSNWeckrPFG9sFM2lot1c+gp2T65afL/ALhnnPDscPSyu1IlCu6SYgw8ryz5+0S5JS9aF3h55nlKTtxrHzvTszqUNfSv3nH3Mrkg0ywLfDzBOZclQ23PWOx1t1p77+XX3V8h3bSrxrAcA4FFDlpksC+sYPSv/3Er9eoY4WSk+qxS1L4pXFoqsFP/+es/ahXbJ8O6gXpfaK21WjCn/Q2SZPRPD8/aJyrL5T2z4YmVT39Kiw95ZX4nOLfPtsCvjSF/+kQ7fw8/SfyNLLr/BM8kMAIBHEVkW72qZepyY/3JXdY2neybkalmsLEv4JuYopByYW3Z/TdOdBc8Whl/KivtNzISulumJ/5V3lkeZ7A8AwCOFLDNZFntumdraIMrT1WvZPft2+7tnQuaWxcyycZ7yPy39vexjfWuOXZ+THjnlS4r33LL4c8vmPF4o33IrY96c6auuPycPtWqt3RLC3DIAwCOCLAuEV9g3MS+stls3bfOtt+PN0DMyxvabmMFxaaPeHC/LpHF7QIa+4Si7KnIE7kLGecq/yrLwb2KuqQw9cWP6iqsrm/qWvGAqbW3aHhltKtH0YhBZBgB4RJBlJoz0c8s+1sEU+dyyUPfoh5b9YLVol+Xkue85hs8tC45EsixjsThXKd4y38o0UsT78u0TlWXSUP8mpplbpp9btsrs4Hlu2bS0s9l1YTcuD8+vlAfvfMI3yYwsAwA8IsiyQJZNRam5vrllM2fYW6ihh65NrihT/keoo4csAwAkPbJsKmeZVGKmsnnHYRE5P2tyjFGW5ZZ1fjs4eK+9yC4DAJCcyLIpnmXS7m32FuqVJvHxdvGcO4+ZGJssa783ONDX3brDLgIAkKzIMgAAACeQZQAAAE4gywAAAJxAlgEAADiBLAMAAHACWQYAAOAEsgwAAMAJZBkAAIATyDIAAAAnkGUAAABOIMsAAACcQJYBAAA4gSwDAABwAlkGAADgBLJMiMpKcWWffT32MsWlM+LSRrs05a0UV86Iyky7NL70ZwWHm7/DJ4ru5Fd2ztCvUwvv5Nd1zdSvPeakrrqaU9eX36THnlN2dVDKe4ub+rJW2KUIk/t2AMBEIsvIsmEhy3zqF9b1Ld2wOfh6edEB/Tpk+oqrK00SRQmjOdNnlKRtvbUmdhhN7tsBABOLLCPLhmUis8zjnGu/wxVXQ60TNnzpsyvjSF9+3RcZC3KnqcX502fM1+tF2h7fu2KE0eS+HQAwwcgysmxYyDIj0Sw7ldXU9/2iw3bJI7Ewmty3AwAmGFkWyLLc1aKtSTXHZw2iebVItRuV1FmislR0BLaee1EssFus1HRx8qD4VN9rMzs8bbdEybLyN9VudYvtorR7e+DgdaI2V1R7MlGdW+Au3rmV6iQ/btCLTeJVu4t4eqm4UGP36Tgs9qXb9UpEReVtVGt22SWxa5+4Uik2LRYX6uxhw3/2dNF8WHymD962XZ1A2AHj2vRi4JzPiMsH/ac39Ml7xMqyId6eyK9Oae8ZVPpv1NsViUvb2Zd/6Dfm1zWj6H7+MTvJzF6m8nRPaPiiTdOF5w+jyX17UP2Nfv276Wm3KwAA44ssM3+/G0RH4E+4GRfX2a1ihjgXqIrgaA1uleGSKdr8W+Xo2BdIN3+WHT2stlYvtItS+UHfG+2IlmWX9HuDw6TVgpXhZy5HKJsSybKItzcttVsjf/YOvZh4lkU9fvDtcU7eI2qWDf32uL86a+RZVjKvsu+54mr9ujD9QN+ancHoIcsAACNAlgX+frdtEctS1OKypTqzGuw1ldmLxfmDonapMN+wmzlLnJdp4rnp+Zb+k3/hRfv2mTPEvt3icqnYoBdDWZYiquWeTeKoNzuW6mtsh8Urs9RSaorYvl2nQ9hNVX0Quf79jSLXHDagWXdSXeD08gt0qRwWy/RiglnWUSry9WGfW6fO59PtepsQG7aorZe3+38zCWdZaq796bZn2itwuUvF+zWiKVcvxD15j6hZltDbY//qrBFnmf4O4+LnzQ+jbhcueaFQv/ZS65cV+jow3FBhNLlvJ8sAYIKRZSbLKkWeXVJMu1R74iM9U7yxUTSXinadAqFsmiUunhHt23w3/nxMlm3WTXZG/GylXW1EfpDU5M8+xX/JLURX3ccv2iXjVR125brzEsqyQIAa3k9X1/bqhLc1zNsjDxgc5zw/4Cv6TN4I3NgLF/fkPaJkWYJvj/WrGxWVO+riU5RxJ2Oe3Umb0lkGAJhgZJnJsrAM0jVjC2OGOFkpPqsUtS+KVxaKrBT//vqvvrdFwgWu1sj6uSSLp1KstRuUYWVZlE/xnmeAr5wSyTJ/knp/OvW6VPgexBXjgMHhPZnIg/vEPXmPKFmW4Nvj/gcaCbIMADAeyLJ4V8tUW/ivGFXXeLIpsatlssl2zxKpS9VdtstbPDsP5yZmlLZI7GpZaK5YYGuCWZbI1bIhuHO1bKyzTHmy+H5+Zcfj+vXjm9SDZJ/Ur/3IMgBA4sgyEyKx55aprQ2iXH/FT2bTvt1qZ282RZ1b1n5QbDIzmXQWBJOiUM/W8nbS0FP+rdhtEWd+lW6XT0vFc/pk8leLy/r4CWbZeMwta60TP1utFyZwbtlQWTbCuWWvZRwKzvHPnfN6X/7r703XC35TOsuYWwYAE4wsC4SX+ovuGRcC6bBpm2+9HW+GnpExrG9iSur5Fw2i2ESbluADMkLDE1Jxv8yobol6NpmvUiaYZZP8TUx9qS/qMOef+DcxQ8P/wyojzLKz2aE5/tUL6mT9vKZfG7G+C3k1ze4Q/uSw4NCFNLlvDyLLAGCCkWWBEAk+1yryuWWhbNLPJPvBatHu/wNvHmymrgwl8Nwyk3Gm2zIWi3OV4i3vTbcU8b48TsJZJg396C/14DFzkCZxYaPYpO9CJppl5u2je27Zc8EHhg33uWXxskxK8LlloTFWWZbd+f2mO/PMNLJ5HblN9xcs0a8tsgwAMAJk2aQK3uYzc8tmzhBvlKp6CD01DZhUHbJayTIAmCBk2WQr0R3mG4d939YEJktuWee3g4P32ovsMgBgfJFlDti9TVzWN0mvNImPt9vp+cBka783ONDX3brDLgIAxhtZBgAA4ASyDAAAwAlkGQAAgBPIMgAAACeQZQAAAE4gywAAAJxAlgEAADiBLAMAAHACWQYAAOAEsgwAAMAJZBkAAIATyDIAAAAnkGUAAABOIMsAAACckBRZ1tEzaDwc6L/bWZVrVwMAAEwhyZVl2sA3rTl2AwAAwJSRFFkWUHCws2dgcLC/u96uAAAAmDKSKsuk9ntkGQAAmJLIMgAAACckXZbdHRwc7O0qZXYZAACYYpIty3Iauh881DP/uWYGAACmlGTLMlF3jSwDAABTUbJlWes3ssgecBMTAABMOcmWZUz5BwAAUxRZBgAA4ASyDAAAwAlJlWUFNV29D8kyAAAwJSVFlvn/Tcz+G1QZAACYepIryx4O9H/VVpZrVwMAAEwhSZFlAAAAUx9ZBgAA4ASyDAAAwAlkGQAAgBPIMgAAACeQZQAAAE4gywAAAJxAlgEAADiBLAMAAHACWQYAAOAEsgwAAMAJZBkAAIATyDIAAAAnkGUAAABOIMsAAACcQJYBAAA4gSwDAABwAlkGAADgBLIMAADACWQZAACAE8gyAAAAJ5BlAAAATiDLAAAAnECWAQAAOIEsAwAAcAJZBgAA4ASyDAAAwAlkGQAAgBPIMgAAACeQZQAAAE4gywAAAJxAlgEAADiBLAMAAHACWQYAAOAEsgwAAMAJZBkAAIATyDIAAAAnkGUAAABOIMsAAACcQJYBAAA4gSwDAABwAlkGAADgBLIMAADACWQZAACAE8gyAAAAJyRlluXsPdbS8u7R4gy7HFBY3thStcsuJGpXVUt0VTvtHmNEf1BjeaFdtHb6Pj5iMxJSsP+E/O39tGS5XR4W9T+byP/cZm3QsP93FST/uyfyn3VTRXNLy4n9a+0iACAZJWOW6b/BzYdetoshk5dl/6z+hsf540uWjZu16n8RjeX/bBeHyYUsm1v8tvyQ2r3P2mUAQFJKwix7+ZC+rFBgF6WXDzU2n6yt2F9S1dhS+2bx/kO1je/WlqywW+PQtTTyP7pGIlkWz85qsmxkVJU1v1U01y6ONf0fd9j/C3l2b21z44mflO89dKKl8eje3eVVx5sbj2yNfpJyZ/m/wreLx+tHAAC4IfmyrKjiVEvLsb05dlGZm1O4s7yq8V11VUNqPn605MdrF9mN8ZBlGNrIskwsWvvjkqPH5f+F0N5trCrfWZgTvbty9skqa67YZBcBAMkq2bJs7raj8m/c0W2Rf97mBu46JXydzEggyxZt2Ft1MvD3tbmxav/WPDutLexOl0e1vSeW+L2wWFk2N29r+U8DB5Gfvnu9rzgz5ObaxsDZNR4/undDokVqbqE2lm+VR2g2UdtYW77FN0HL97M3nji6e33wV+/70ap3zv1BaM+qf7H7DPH2eNS51ZaXn5An9m7j0W3ri4/oj2s8Whz677to/e6q0M/+0/KteYHDm9lmYdeffBelEr59PMIs01bsrdW/2CEv5ul7sEwrA4BHQJJlmZ7sf6oiclrZ3Jfk387mo6/mqR2G9RdOZ1kEz0wj/Vc53PH961WZjX+WrdhZFciOILlX4G98zs6fRGyWv4dtCZaZTpPmsCPIX6M9vP6thmk+usVs9P9ojY3ePc2POfTb4/Fnk0fglxQMcY/mqp022vT/VPyztXT+BC9KTUCWLTf/a1xv/8cZI8z0ZP9a3/VfAEBySq4s05dAov4BLSypPXFIX5CQHXOiameeWZ2AeFmm//Y3Vmwr/Kcss2LR+pKqqhL/JatEbmLG++seLcvMTPCWxreK16pPn5vzUkmtiqjg1DrdFsf2F75gb4/Nzdta8ZOK0EWjOEyaNNeWFObIyszIkb9Gc3jTtet3V9Qeryp5yRx8bs7mimg/pq2j5p+WFwdOw0js7bGYH23vcrGo+Cfq+LW7l4us4qp3A8lrrofJczfHz1pb/JY+j8AVMnNh1ZPoL6vb39GSPc7t4xFn2bNbK06aa7eyIGtr97/8tFnvY/4TV+0M/1oxACAJJVWWRU72HwPxbmLOffWo92pS88nao6GbmAHjlWVbj8oK8ZeErY1SE576AlDQu40nqiuGexNT3X+0i9JcdRottXtDP+CitT/euf9QVdXxRnOjM3qWxfzh4749FnVu5telP8CEsn6psyyvVP3k/tvZ+rfx7tGtdlF3WODaqvm9Rb0oNV5Zlggm+wPAoySJsiyjWDWKf7L/GIg/t2xu3qv7g1VhnfT/FR+vLLPZZJeMsM/KWr/3UGhumdZctSPBX5I6fthn2sjSD5uY+9L+2uaW5hNV5ft2Fm3IW54VZX9vKoVJ7O2xxMky73kG6aYMXek00arTLdaz7pRJzDL/fVUAQJJLnizL0ZcVok32H50EpvyHZC3P21C0/5iMoMbyl+w6ZbyyLO7VMq+5OavyXt5xVH6KjNfEfk02+zw7e6+W6fL5aUko8TLUf4OEsyzBt8cSJ8sSuFoWuBYlU/55nT9RnnWnTF6WxbyvCgBISkmTZTEn+49WnCxT3/WrKn85eF9wbk5hicmyDXaNskH95W45vt8+ASEjZ21BxAPnR5JlceaWqS9pVh/dG5pJtmjtNjV/q+UnkZEUlc6ymHPL9NbGo2am2qKC4nL9uIeEsyzBt8cSJ8vizi0zzI3vo0fkvjEf1jppWcZkfwB4xCRLlum/weNyWSH6lH/JdMDyndUqJsKpqehe+rKHVyBTdEdEYzvAhFEUtgOG/CZmtK86So0Vm71lMgT96eHfxAy+Pa/kuF3l1Rx4JmqMHy14YzHO2+OJl2VxvokZYOpNCp+/Fec3H+8/3Ojp5o5xXxUAkJSSJMv0NY/x+adp4mSZtGj9jnLvc8tqyyOm/KsLV8UVxwN/yN9tbj5SbNbH++seL8vMJbHYzy2bm1dUcuREcG5Z88mqkT23zD6MN+y5ZSs8H62fOrb1kF7UYRTjR/PM9xry7fHEzTIp9nPLQsyTMiLnb012lukbrLHuqwIAklJSZJmZ7O+bAoUxYbJsjK7+YDj0PLgR/zueAIApKRmybLwm+4MsmzRM9geAR1FSXC3DeCHLAACYOGQZAACAE8gyAAAAJ5BlAAAATiDLAAAAnECWAQAAOIEsAwAAcAJZBgAA4ASyDAAAwAlkGQAAgBPIMgAAACeQZQAAAE4gywAAAJxAlgEAADiBLAMAAHACWTYCJxb9+m7OvmK7FPTS52uirh8rW9p7BgYHv+0sy7Urpo5McemMuLLPLg2hsjKh3Yxd+8SVSpFnl8bUvI5lTX350cedjHl2L5Gya/bWL5Y3qPWr625lvXBgmlmf4NtHJ7es89vBwYGe9i12xQgUf9Dd2z9o9XfX29UAgMlBlo3ApGRZcfs9GWW9XTvs8pQyiizL2yiunBGVmXbRa5Ky7Ivvpel9Ug5nHgrb1LessESVWSJvHws7OnsfDg7cax/h/+a2dPbaItPIMgCYbEmTZc8/sfOPS355V4ZR3kc3nzl4KmW63TAOYmTZeMr55W0ZZf03kv3vplNZtqxwl100ZpzKqguunPNk8X2ZWSvLOmamzZeL0+e9l10nq+v67JRE3j5W6m/0Dw4O3P5ljl0elo4eFWNftU7B668AkJySI8uen1nzdV7L72fmLFNLc8rT3/l61bsX5Z/H8THxWVakblcN9naO4nbV1OBwlq2dtef+mtffs7mf9tGSpr78Ix2Pm0VtWnbnsiNX09ISePvYMVe8vu0sssvDobKsv7vOLgEAJl0yZFnK7r/mXWh/wvsHb3r5vAt3s4tUpaXsu7nmXHvG2zdX/fru8nfef/z77y9+/+6aX329ePses6/yRPGst/+64lfmYttfF+0st3OEjOmvBLc+1/L5rKxT3ixTx/+12mTGopfMao/pG57c98dl+kqe/NwlNRefmGO3JGpLl/rT29cV8ad3pUqW6o3i0zPis0rxaro4KbPmjLi0TSywe4jUWaKyVHQ0qfWfNYhzL4Y2SZWHxZUGURws2Fni4hnRsc+3Tyzn5Adttq9NTqXq17uDtaRPLzgubdSb/TZtFJfNudWJysWeLDP3PaONcyv1DoEs27RYXKjTm5pE82p7Dh76epLU025XjMj0Vdefa/oiPXD/cdqq6/lNfVkrEv0vGfZ2ee4ZR/ry95xNXXV1WWBq2sJVrwX/Zzd9xdWVvrAzF+duZcyL+MSirj750/V2jSDZyTIAcMzUz7LpNU/9UhfYnBNPXZDd89eMfZ/L/Jopa+n0+49FZFOeris1fvX5TFNy0/dktIR2MGNZWbneJqlLcb6trV+vGEaWRbxdnsM76sSG4bf6ZlOUO5j+7vEOe3lphjjXEL6pdZ3eZJgO2y0y9FL5QVVpr+jXcamdS/UbU8T78sh1olCvr6sTn27Xr+Jl2Vp9Jcw7OuTZDivLIrY2LbVbA8Ykyw5kVvY9V1wfzKbUwjv5KrMKnyy8Hpzyv3DVLl/Oh4S/3WZZ3X3ZXnrCmR1LXgh0bqjD1MK0JV1yT89WL/MD9vzWLiYsR7+RLAMAh0z9LHvp8zwVWMtmHb+7svbUtDlns2V41Z4Sa3+/8tefz7TZdDMjZ7bIurhEVtG5S49Pn52y+69q5TPqAI+Xqa5acfzs40/OVsvzj8xTlfYf3zNfmPt+e64MqZ//fuZ8HTp2a7SbmM9cyonMsieOpNf8R3bZkceeMIs/nF0rK02dWOKq/qL/7nbYRQ/dPedXqzD6mQyaBrF7hpiZqy6emXaZvVicPyhqlwrzeTNnifPB7glYUGBrxryoW2zXx7V2c6DhlopPD4uPz4ij6bbz1Cn5qUtrYVmWIi7IkGoQby1Ul7hSU8QbpTqthnUTU5ZcqcjXV/ueW6d+cFuEIWOQZdOe7Xqu6f78bLsoPVGksixrj5pe5h0rtlZHllnk222WNfUtK6pOUSc/P2VJp/qWQF2X538Zh+dX9q058FGKeRH7BqiZIvaXKruYiLpu80sZ6Otimj8AuGPKZ9nj/6avij15NvvXXz+1Vq4ozjh3d2XFER1Jf03PMjcxL+m/2545YepbkybL1P5rwu6BqqSzgaUD7ut5gQs0is6vRLPMeHLPk69emv/2H5e8//UqdcFseFlmL4fEyjJzoyvs9l/wkpKUnine2CiaS0W7uXLm7x5J3XZsEO36pmTETUBVVOpdZnjncuWqNTKYZJ+1bxFlparGUvUpqT7zi5Jl+u3vF9glQ33WsLKsQbxql5SmiOgcC3PS9vTlH+ucYRcVfbWsL7/h1lMrSvT/cuanZH+UfUyWVuTzL6K83WbZkQ7vb1sf8848z9un6TlqK47dz6+7Psv/fi+TZcP6Okgwy+6O9FucAIBxMOWzbGbN3TU1J8TK9uW//o/ZT8oVKrNUM6lIUuEVL8vUyuDtRe8we+qLbX+cZa51WTGm/EfPsuefPHhz1a9uZpe9P2vtnsfSlz2uDjimV8uGyrIZarbZZ5Wi9kXxykKRlRJlTr2SLtpkDzWJ7cFJZh4xs0xfGJNdZYLMxFnhlsAlNL8oWaZPvnahXTIiT29YU/6j/3SjVb2gTs0D814Ge+yFL2SWLX7e9xXGadmd32/qy14VNv0rytttlu05ZZeMFVflMbNW2CVtftpOfVFtyO9vjuBqmZJz/r/Ut3u7a+wyAGDSJUuWqcwyraOaadEPZ+tI+uOs6YldLXsn7I9myGivlr30eZ7/7ery3jCzLM7csiGyTIVLYMqXUV0TJVzUxP8acTnhyf5B8mifbhc/OyPKZ9lbmScPquNHveQ2LlfLJiDL0n8T5WkXCzqXR2SZ0Fnm76oYb0/sapme+H9/eWWMyf7WSOeWMeUfAJyTLFmmbjuqCBPz3n/G3M384R9NjcXLMju3bEnZkRQzt0yaU/rkqlemmduao5tbpi+2fZ29Te88fdnjP/o8V33nYJhZNvQ3MYfIMrWyQZTrW4qpKWLfbrV/WLiYefeyexasVnOzIqeFDaHYHNCUn5n4f0a0RUztl6JkWWJzy57Tp3fxRWHui8rdlgVu5yWWZaOeW7ak67nIAhOb5x5SNzEzl7zmv4np/bqlFv3tCcwt0885W7nn1HRRMk83nPdhHCF8ExMAkseUzzJ1NavlYsqTp7J/9fVT6zIf/7e/5skX6384+8TdZ7b/UO0QL8vEkyeeej9079KOX/3H9+x1o+F9EzM0zIfm/V7u7F2vvwr6H7OH94yMWM8ti5dlm7bp0Akbb4YuiS1YKTpk9AS+m6lCJ8alqaiWrNMHDFweU+fg/S6kPr2ow5zzUN/EDFqoLuN59wlOm5ugLItyb1ExE7/kJu+wT/n3iv52nWUR38TMXqWmR2olGTL76rrUffnAZ+lECzf655Y12CUAwKSb8lmmr2b9NX3B7Md3/1U9meztEykvfb78V3dza86aB/3HzzJJP7ds+Ue6nPSjxZ6cF7hyJg3nuWWhYT90dsoPPzf//IB9aNn3Ty1SFej59ATEeMp/vCyTdm/3PbTsB6vV1H5TM6n6i5lhNy7ratTWH+hzj09/VrDqXtmuPmi3XYqfZVLM55Z5PJ0rWuVZ6TfKn+Jk4MLT5GaZNC397MJD91frolpVeT1jSWGUe+FDZJl+blmO+rcBwp5bNv+JTXfCblxOf/6LNU33s1eFfYT+6Ub6lP9f3pa/l4F7nRXeR6YAACbP1M8y8cPvnb674u0T/r9Ws0XkdYWpbUr/m5gIF23K//DtUHe3R/5vYua2qtgP4t/EBIDJlgRZJsQz7y9uvZv79qnAg8fKZ799M7fiSJQrF1PalvYe+Uf0207+BcMkMAZZllumbm0P9LSP4p/kyqns7Pm7rTKyDAAmXVJkmTTvSHpN8F9P0v9Uue+RFoBbxuZqGQAguSRLlgEAAExxZBkAAIATyDIAAAAnkGUAAABOIMsAAACcQJYBAAA4gSwDAABwAlkGAADgBLIMAADACWQZAACAE8gyAAAAJ5BlAAAATiDLAAAAnECWAQAAOIEsSxZpe/rym+5kzLOLTsmt6rzbP/Bw0OjpsKsBAIAXWeaEU1lNffl7TtmlEXE4y05/OWCLTCPLAACIiixzwhhkmbvqu/sHBx/2dtUU2BUAACAasswJyZ9l99rtEgAAiIEsS8jaGRuu59T15ct4aupbfqBrdvp8u0WZ89iSjsWVfWv01pWHrvq2zutY1tSXteq1WcW3Vpm3v94xY4bdqO88RhtHOlLtLmJaWnXG63dWNqj1q+tuZW04PN1ukXZlHPG+8WqaXR8w5Kcb09LPLjx0f7XeuurI9bnZa+0G/8GzVsxJXXXV/hIaIj5oCGQZAAAJIcviW5u2536wTgLjVsa8OWbz9BVXV8beasLIFFtwrDnwUYreGD/LZpzKCuRgcDzzQqHZmGCWxfp0aZrewbs1v+lOZrY5ed/Blx265TnOMLJsR2fvQ7IMAID4yLJ4pj3b9ZxMmUNdafNyp6kVualLOp6uvLXgWdNG9QtVNt2av2Sz2fr489dVpR36jU0f2z12h2lp1fNV63yR7uuamDcxp2f/JvvA9Ux7cPn297Llx0XbM7XwTqwsi/3pBzIr5eL97OdL9BW4+SlLOtX+Bz56TG+27EHuP11YnZoSyM2EtN/Tk/wf9t/8ZZFdBQAAYiDL4nmy+L7smDn+G38hS1S0Ld2w2S4qc2bqt9j00U3j3eGxF76I+Mrk0HPL5kyfVz2nsGvh67e+b66cDTPLYn663rq86LBpPkP/vP7j6N2WFe6yi8MQyLIH3Q05dhUAAIiBLItH3Wf0zPQKt+Kq7KSsFXbJ0IXkSx/fDuotCWfZjPqnjvStPnI9c8PZmQsKH0spUTcWh5llMT9dn3y04T+9yIMMx46uXllmd7mJCQBAHGRZPGNytWykWTZHReGxTs+Hl8yrHLss01ufeT44xz+G0WUZU/4BAEgMWRZkLx2FBVP0uWXPHLuzaNVrentCc8viZtlC+ZbKrrQ08xXO+dPTC/VkLz3pvu6L7+mvdk5LKZm9846adz9WWWbmljXcylzyWvDbndMXVM9INz9pAFkGAMBEIMuCYmTZmHwTM16W5c5+3X+EwG3TGVvDP1plWdl7gYoK+yZmaNipYPE+ffqzV1dEvHd1mfmqZoyDD3FLNyqdZd92MrkMAIChkWVBMbNMmh96ZNfInlsWJ8uESDkwZ88t83AyOVaUfRRIH/XIMe9Dy55YdV2FlG2j0WaZZJ5bZp5qpj+iOvA1zDHKsrJrDwYHB/u7zxVRZgAADIEsw7ir+JPqsiD+TUwAAKIiyzABiltv9A48JMsAABgKWQYAAOAEsgwAAMAJZBkAAIATyDIAAAAnkGUAAABOIMsAAACcQJYBAAA4gSwDAABwAlkGAADgBLIMAADACWQZAACAE8gyAAAAJ5BlAAAATiDLAAAAnECWAQAAOIEsG7XKSnFln3099jLFpTPi0ka7NOWtFFfOiMpMuzS+9GcFh2O/w/ob/YMePR12fYT6brVjT7tdTJB+171hvimkvWdwsP9GvV2KkPDJAwCGhywbNbJsGMgyy4Usa78X68hkGQBMDrJs1MiyYZjILPM45/DvsE4V1FiXzfhmWci4nDwAPLrIslEjy4aBLItAlgEAAsiyUTNZlrtatDWp5visQTSvFql2o5I6S1SWio7A1nMvigV2i5WaLk4eFJ/qe21mh6ftlihZVv6m2q1usV2Udm8PHLxO1OaKak8mqnML3MU7t1Kd5McNerFJvGp3EU8vFRdq7D4dh8W+dLteiaiovI1qzS67JHbtE1cqxabF4kKdPWz4z54umg+Lz/TB27arEwg7YFybXgyc8xlx+aD/9IY+eY9YWTbE2xP51SmqYKSEIiaq6GVjD2v1d0ccPafqdz39A3rrw4EHX7a1qhuLwcYyWdap9nmo9/lHb/cHxXZjh+/YHv3ddWYPk2WtrTd6B8zb+z1v94p98r5fSORu66o67/bbgz/s7/lza+TRA7dKh3sDFwCmMLJs1NTf7wbREfgTbsbFdXarmCHOBaoiOFqDW2W4ZIo2/1Y5OvYF0s2fZUcPq63VC+2iVH7Q90Y7omXZJf3e4DBptWBl+JnLEcqmRLIs4u1NS+3WyJ+9Qy8mnmVRjx98e5yT94iaZUO/Pe6vzpqcLKv40wO7ycefZeEeXDuoNyaWZYMDJvqCBm7/MsdsDhlZluXWd//dHjSo/8vzYUcnywA8gsiyUTN/v9u2iGUpanHZUp1ZDfaayuzF4vxBUbtUzNSLM2eJ8zJNPDc939J/8i+8aN8+c4bYt1tcLhUb9GIoy1JEtdyzSRz1ZsdSfY3tsHhlllpKTRHbt+t0CLupqg8i17+/UeSawwY0606qC5xefoEulcNimV5MMMs6SkW+Puxz69T5fLpdbxNiwxa19fJ2/28m4SxLzbU/3fZMewUud6l4v0Y05eqFuCfvETXLEnp77F+dNU5ZFqJuNYZnWettdZ2p/+YnFQVyKbeo4re3dcKEZ1n/f7VVyP8LkFvW+pVafvCnMrtdG/ompuyw3j/UF8lfdm5R/R96VaM9uFZhdwgYUZad/lIdbODbrvrNqsQKDrbdVJX24NqbZrtFlgF4BJFlo6ayrFLk2SXFtEu1Jz7SM8UbG0VzqWjXKRDKplni4hnRvs1348/HZNlm3WRnxM9W2tVG5AdJTf7sU/yX3EJ01X38ol0yXtVhV647L6EsCwSo4f10dW2vThTaJcW8PfKAwXHO8wO+os/kjRl2MVzck/eIkmUJvj3Wr27sjCDL9FvCQrD1G2/B6CzzVtSb1x5EvCVOlt1r91y+ytE793YGktgaSZbpc/vHzfPeQ/3ytjqV2L8EAHhEkGWjprIsLIN0zdjCmCFOVorPKkXti+KVhSIrxb+//qvvbZFwgas1sn4uyeKpFGvtBmVYWRblU7znGeArp0SyzJ+k3p9OvS6116KsGAcMDu/JRB7cJ+7Je0TJsgTfHvc/0KiNX5b5pvxHpFK8LAvbWV+7Ct7lDBhJlunmiybsEwHgEUSWjdrQV8tUW/ivGFXXeLIpsatlssl2zxKpS9VdtstbPDsP5yZmlLZI7GpZaK5YYGuCWZbI1bIhuHO1zLUsS/Am5uiybJRXywa/abVL8s2feC+G6XP7rivaNwgA4FFHlo2aCpHYc8vU1gZRrr/iJ7Np3261szebos4taz8oNpmZTDoLgklRqGdreTtp6Cn/Vuy2iDO/SrfLp6XiOX0y+avFZX38BLNsPOaWtdaJn63WCxM4t2yoLLPXfkZ+pWckWZbYlP+4WXZXvmXg9m912wlRsKOibIt+ZX+oEc8t09X4sLerRh44p6ihs0fu5NnNzC178GVbhZ5bpuw43faLCvVZHswtA/AIIstGzYSX+ovuGRcC6bBpm2+9HW+GnpExrG9iSur5Fw2i2ESbluADMkLDE1Jxv8yobol6NpmvUiaYZZP8TUx9qS/qMOef+DcxQ8P/wyojzLJAc0SwBWYPGykQN4k8ICNOlhVd6dXvDxr6m5j9N8/Ziop38jmt3/jfqw8Vqrct7T1hx5YePugyXxQNIMsAPILIslEzIRJ8rlXkc8tC2aSfSfaD1aLd/wfePNhMXRlK4LllJuNMt2UsFucqxVvem24p4n15nISzTBr60V/qwWPmIE3iwkaxSd+FTDTLzNtH99yy54IPDBvuc8viZZmU4HPLQsONLNty/tq9/gd/9l66KurqUxuHlWVCFJz+Q6DtpIHeazVmvdlZPbfMPvbM/9yyeCcvRK56LJlZN9DX3fpBxEU133PLBvrvXWst9dwy1cgyAI8gsmwqC97mM3PLZs4Qb5Sqegg9NQ3JKLfNN7dsXfHpwE1G3wMwkoB6xBpZBuARQpZNcSW6w3zjsO/bmkhGxeH3H6X+7obwC05TW25Z57fqml+RXQaA5EeWTX27t4nL+ibplSbx8XY7PR9JLqfqd7cfBO4lDvy9p1PNr08q7ff0DdAddhEAHgVkGQAAgBPIMgAAACeQZQAAAE4gywAAAJxAlgEAADiBLAMAAHACWQYAAOAEsgwAAMAJZBkAAIATyDIAAAAnkGUAAABOIMsAAACcQJYBAAA4gSwDAABwAlkmREfPoPFwoP9uZ1WuXQ0AADCRyDJPlmkD37Tm2A0AAAAThywLKTjY2TMwONjfXW9XAAAATByyzKf9HlkGAAAmB1nmQ5YBAIDJQpb5tN8dHBzs7SpldhkAAJhoZJlPTkP3g4d65j/XzAAAwMQiy/zqrpFlAABgUpBlPq3fyCJ7wE1MAAAw8cgyH6b8AwCAyUKW+ZBlAABgspBlPmQZAACYLGRZSEFNV+9DsgwAAEwOsiz838Tsv0GVAQCASUCWebLs4UD/V21luXY1AADARCLLAAAAnECWAQAAOIEsAwAAcAJZBgAA4ASyDAAAwAlkGQAAgBPIMgAAACeQZQAAAE4gywAAAJxAlgEAADiBLAMAAHACWQYAAOAEsgwAAMAJZBkAAIATyDIAAAAnJEWWdfQMGg8H+u92VuXa1QAAAFNIcmWZNvBNa47dAAAAMGUkRZYFFBzs7BkYHOzvrrcrAAAApoykyjKp/R5ZBgAApiSyDAAAwAlJl2V3BwcHe7tKmV0GAACmmGTLspyG7gcP9cx/rpkBAIApJdmyTNRdI8sAAMBUlGxZ1vqNLLIH3MQEAABTTrJlGVP+AQDAFEWWAQAAOIEsAwAAcEJSZVlBTVfvQ7IMAABMSUmRZf5/E7P/BlUGAACmnuTKsocD/V+1leXa1QAAAFNIUmQZAADA1EeWAQAAOIEsAwAAcAJZBgAA4ASyDAAAwAlkGQAAgBPIMgAAACeQZQAAAE4gywAAAJxAlgEAADiBLAMAAHCCyrKB/+//B9qE1+hidLk/AAAAAElFTkSuQmCC;" vertex="1" parent="6xUMhn31XoTzL20euPGf-1">
          <mxGeometry width="860" height="636.06" as="geometry" />
        </mxCell>
        <mxCell id="6xUMhn31XoTzL20euPGf-7" value="Las media queries se utilizan comúnmente en el desarrollo de sitios web responsivos, donde se busca que el diseño y la presentación de la página se adapten de manera óptima a diferentes dispositivos y tamaños de pantalla, brindando una experiencia de usuario consistente." style="whiteSpace=wrap;html=1;shape=mxgraph.basic.roundRectCallout;dx=30;dy=15;size=5;boundedLbl=1;fillColor=#fff2cc;strokeColor=#d6b656;" vertex="1" parent="6xUMhn31XoTzL20euPGf-1">
          <mxGeometry x="440" y="60" width="390" height="130" as="geometry" />
        </mxCell>
        <mxCell id="6xUMhn31XoTzL20euPGf-9" value="En la práctica, las media queries pueden ser más complejas y abarcar diferentes características del dispositivo para adaptar el diseño de manera más precisa." style="whiteSpace=wrap;html=1;shape=mxgraph.basic.roundRectCallout;dx=30;dy=15;size=5;boundedLbl=1;fillColor=#f8cecc;strokeColor=#b85450;" vertex="1" parent="6xUMhn31XoTzL20euPGf-1">
          <mxGeometry x="440" y="350" width="386" height="100" as="geometry" />
        </mxCell>
        <mxCell id="6xUMhn31XoTzL20euPGf-8" value="Una media query consta de un bloque de reglas de CSS que se aplicarán si se cumple una o varias condiciones establecidas. Estas condiciones se definen utilizando características específicas del dispositivo, como el ancho y alto de la pantalla, la orientación, la densidad de píxeles, entre otras." style="whiteSpace=wrap;html=1;shape=mxgraph.basic.roundRectCallout;dx=30;dy=15;size=5;boundedLbl=1;fillColor=#e1d5e7;strokeColor=#9673a6;" vertex="1" parent="6xUMhn31XoTzL20euPGf-1">
          <mxGeometry x="442" y="200" width="386" height="120" as="geometry" />
        </mxCell>
        <mxCell id="6xUMhn31XoTzL20euPGf-18" value="Los media queries son una técnica muy importante en el diseño web moderno, ya que los usuarios acceden a los sitios web desde una amplia variedad de dispositivos y pantallas diferentes. La utilización de media queries ayuda a garantizar que los sitios web se vean y funcionen de manera óptima en todos los dispositivos y tamaños de pantalla." style="whiteSpace=wrap;html=1;shape=mxgraph.basic.roundRectCallout;dx=30;dy=15;size=5;boundedLbl=1;fillColor=#d5e8d4;strokeColor=#82b366;" vertex="1" parent="6xUMhn31XoTzL20euPGf-1">
          <mxGeometry x="430" y="470" width="400" height="130" as="geometry" />
        </mxCell>
        <mxCell id="6xUMhn31XoTzL20euPGf-5" value="MEDIA QUERIES" style="text;html=1;align=center;verticalAlign=middle;rounded=0;fontFamily=Comic Sans MS;fontStyle=3;fontSize=32;labelBorderColor=#af0d0d;fontColor=#2fd0c5;" vertex="1" parent="6xUMhn31XoTzL20euPGf-1">
          <mxGeometry x="290" y="-20" width="280" height="80" as="geometry" />
        </mxCell>
      </root>
    </mxGraphModel>
  </diagram>
</mxfile>
